<?xml version="1.0" standalone="no"?><!DOCTYPE svg PUBLIC "-//W3C//DTD SVG 1.1//EN" "http://www.w3.org/Graphics/SVG/1.1/DTD/svg11.dtd"><svg
  viewBox="0 0 60 60"
  x="0"
  y="0"
  width="123"
  height="123"
  class="image-svg-svg bn"
  style="overflow: visible;"
  xmlns="http://www.w3.org/2000/svg"
  xmlns:xlink="http://www.w3.org/1999/xlink"
>
  <g
    hollow-target="iconBnFill"
    mask="url(#42643348-5c93-4df2-8787-ec97ed866e33)"
  >
    <g>
      <svg
        viewBox="0.11275 0.11275 81.77451 81.77451"
        xmlns="http://www.w3.org/2000/svg"
        xmlns:xlink="http://www.w3.org/1999/xlink"
        style="overflow: visible;"
        width="60"
        height="60"
        x="0"
        y="0"
        filtersec="colorsf2363165268"
        filter="url(#9gT8nJr9MQH8Ux36-4suT)"
      >
        <g transform="scale(1, 1) skewX(0)">
          <path
            d="M56.556 6.556l18.888 18.888c8.591 8.591 8.591 22.52 0 31.112L56.556 75.444c-8.591 8.591-22.52 8.591-31.112 0L6.556 56.556c-8.591-8.591-8.591-22.52 0-31.112L25.444 6.556c8.591-8.591 22.52-8.591 31.112 0z"
            fill="#333"
            fill-rule="evenodd"
          ></path>
        </g>
        <defs>
          <filter id="9gT8nJr9MQH8Ux36-4suT">
            <feColorMatrix
              type="matrix"
              values="0 0 0 0 0.984375  0 0 0 0 0.2265625  0 0 0 0 0.26171875  0 0 0 1 0"
            ></feColorMatrix>
          </filter>
        </defs>
      </svg>
    </g>
    <g filter="url(#colors6641546979)">
      <svg
        xmlns="http://www.w3.org/2000/svg"
        xmlns:xlink="http://www.w3.org/1999/xlink"
        viewBox="0 0 78.890625 52.59375"
        width="41"
        height="41"
        x="9.5"
        y="9.5"
        class="image-svg-letter"
      >
        <path
          transform="translate(-0.94921875 52.1015625)"
          d="M37.79-18.70L37.79-18.70Q37.79-13.89 36.12-10.28Q34.45-6.68 31.55-4.29Q28.65-1.90 24.77-0.70Q20.88 0.49 16.42 0.49L16.42 0.49Q14.70 0.49 12.64 0.04Q10.58-0.42 8.47-1.11Q6.36-1.79 4.41-2.58Q2.46-3.38 0.95-4.08L0.95-4.08L2.50-18.56Q5.48-16.77 9.12-15.84Q12.76-14.91 16.28-14.91L16.28-14.91Q16.95-14.91 17.89-14.96Q18.84-15.01 19.71-15.28Q20.57-15.54 21.16-16.07Q21.76-16.59 21.76-17.58L21.76-17.58Q21.76-18.25 21.34-18.72Q20.92-19.20 20.25-19.49Q19.58-19.79 18.74-19.95Q17.89-20.11 17.09-20.18Q16.28-20.25 15.57-20.25Q14.87-20.25 14.45-20.25L14.45-20.25Q11.43-20.25 8.95-21.30Q6.47-22.36 4.69-24.24Q2.92-26.12 1.93-28.71Q0.95-31.29 0.95-34.31L0.95-34.31Q0.95-38.46 2.62-41.75Q4.29-45.04 7.08-47.34Q9.88-49.64 13.50-50.87Q17.12-52.10 20.99-52.10L20.99-52.10Q22.71-52.10 24.54-51.98Q26.37-51.86 28.18-51.54Q29.99-51.22 31.71-50.73Q33.43-50.24 34.98-49.50L34.98-49.50L33.64-35.23Q31.25-36.04 28.63-36.58Q26.02-37.13 23.52-37.13L23.52-37.13Q23.06-37.13 22.34-37.11Q21.62-37.09 20.83-37.00Q20.04-36.91 19.23-36.74Q18.42-36.56 17.79-36.26Q17.16-35.96 16.77-35.47Q16.38-34.98 16.42-34.31L16.42-34.31Q16.45-33.54 17.00-33.06Q17.54-32.59 18.40-32.33Q19.27-32.06 20.30-31.96Q21.34-31.85 22.36-31.83Q23.38-31.82 24.26-31.83Q25.14-31.85 25.70-31.78L25.70-31.78Q28.51-31.61 30.76-30.59Q33.01-29.57 34.58-27.88Q36.14-26.19 36.97-23.85Q37.79-21.52 37.79-18.70ZM79.84-27.91L79.84-27.91Q79.84-22.99 78.57-19.04Q77.31-15.08 75.04-12.01Q72.77-8.93 69.64-6.71Q66.52-4.50 62.79-3.08Q59.06-1.65 54.86-0.97Q50.66-0.28 46.23-0.28L46.23-0.28Q44.58-0.28 43.00-0.37Q41.41-0.46 39.76-0.63L39.76-0.63L40.75-47.81Q44.61-49.04 48.71-49.55Q52.80-50.06 56.85-50.06L56.85-50.06Q61.88-50.06 66.09-48.55Q70.31-47.04 73.37-44.19Q76.43-41.34 78.13-37.23Q79.84-33.12 79.84-27.91ZM65.43-25.17L65.43-25.66Q65.46-27.56 65.02-29.32Q64.58-31.08 63.58-32.43Q62.58-33.79 61.03-34.61Q59.48-35.44 57.34-35.51L57.34-35.51L55.93-13.71Q58.04-14.03 59.77-15.10Q61.49-16.17 62.74-17.74Q63.98-19.30 64.67-21.22Q65.36-23.13 65.43-25.17L65.43-25.17Z"
        ></path>
      </svg>
    </g>
  </g>
  <mask id="42643348-5c93-4df2-8787-ec97ed866e33">
    <g fill="white">
      <svg
        viewBox="0.11275 0.11275 81.77451 81.77451"
        xmlns="http://www.w3.org/2000/svg"
        style="overflow: visible;"
        width="60"
        height="60"
        x="0"
        y="0"
        filtersec="colorsf2363165268"
      >
        <g transform="scale(1, 1) skewX(0)">
          <path
            d="M56.556 6.556l18.888 18.888c8.591 8.591 8.591 22.52 0 31.112L56.556 75.444c-8.591 8.591-22.52 8.591-31.112 0L6.556 56.556c-8.591-8.591-8.591-22.52 0-31.112L25.444 6.556c8.591-8.591 22.52-8.591 31.112 0z"
            fill-rule="evenodd"
          ></path>
        </g>
        <defs></defs>
      </svg>
    </g>
    <g fill="black">
      <svg
        xmlns="http://www.w3.org/2000/svg"
        xmlns:xlink="http://www.w3.org/1999/xlink"
        viewBox="0 0 78.890625 52.59375"
        width="41"
        height="41"
        x="9.5"
        y="9.5"
        class="image-svg-letter"
      >
        <path
          transform="translate(-0.94921875 52.1015625)"
          d="M37.79-18.70L37.79-18.70Q37.79-13.89 36.12-10.28Q34.45-6.68 31.55-4.29Q28.65-1.90 24.77-0.70Q20.88 0.49 16.42 0.49L16.42 0.49Q14.70 0.49 12.64 0.04Q10.58-0.42 8.47-1.11Q6.36-1.79 4.41-2.58Q2.46-3.38 0.95-4.08L0.95-4.08L2.50-18.56Q5.48-16.77 9.12-15.84Q12.76-14.91 16.28-14.91L16.28-14.91Q16.95-14.91 17.89-14.96Q18.84-15.01 19.71-15.28Q20.57-15.54 21.16-16.07Q21.76-16.59 21.76-17.58L21.76-17.58Q21.76-18.25 21.34-18.72Q20.92-19.20 20.25-19.49Q19.58-19.79 18.74-19.95Q17.89-20.11 17.09-20.18Q16.28-20.25 15.57-20.25Q14.87-20.25 14.45-20.25L14.45-20.25Q11.43-20.25 8.95-21.30Q6.47-22.36 4.69-24.24Q2.92-26.12 1.93-28.71Q0.95-31.29 0.95-34.31L0.95-34.31Q0.95-38.46 2.62-41.75Q4.29-45.04 7.08-47.34Q9.88-49.64 13.50-50.87Q17.12-52.10 20.99-52.10L20.99-52.10Q22.71-52.10 24.54-51.98Q26.37-51.86 28.18-51.54Q29.99-51.22 31.71-50.73Q33.43-50.24 34.98-49.50L34.98-49.50L33.64-35.23Q31.25-36.04 28.63-36.58Q26.02-37.13 23.52-37.13L23.52-37.13Q23.06-37.13 22.34-37.11Q21.62-37.09 20.83-37.00Q20.04-36.91 19.23-36.74Q18.42-36.56 17.79-36.26Q17.16-35.96 16.77-35.47Q16.38-34.98 16.42-34.31L16.42-34.31Q16.45-33.54 17.00-33.06Q17.54-32.59 18.40-32.33Q19.27-32.06 20.30-31.96Q21.34-31.85 22.36-31.83Q23.38-31.82 24.26-31.83Q25.14-31.85 25.70-31.78L25.70-31.78Q28.51-31.61 30.76-30.59Q33.01-29.57 34.58-27.88Q36.14-26.19 36.97-23.85Q37.79-21.52 37.79-18.70ZM79.84-27.91L79.84-27.91Q79.84-22.99 78.57-19.04Q77.31-15.08 75.04-12.01Q72.77-8.93 69.64-6.71Q66.52-4.50 62.79-3.08Q59.06-1.65 54.86-0.97Q50.66-0.28 46.23-0.28L46.23-0.28Q44.58-0.28 43.00-0.37Q41.41-0.46 39.76-0.63L39.76-0.63L40.75-47.81Q44.61-49.04 48.71-49.55Q52.80-50.06 56.85-50.06L56.85-50.06Q61.88-50.06 66.09-48.55Q70.31-47.04 73.37-44.19Q76.43-41.34 78.13-37.23Q79.84-33.12 79.84-27.91ZM65.43-25.17L65.43-25.66Q65.46-27.56 65.02-29.32Q64.58-31.08 63.58-32.43Q62.58-33.79 61.03-34.61Q59.48-35.44 57.34-35.51L57.34-35.51L55.93-13.71Q58.04-14.03 59.77-15.10Q61.49-16.17 62.74-17.74Q63.98-19.30 64.67-21.22Q65.36-23.13 65.43-25.17L65.43-25.17Z"
        ></path>
      </svg>
    </g>
  </mask>
</svg>
